<?xml version="1.0" encoding="UTF-8"?>
<svg id="Layer_2" data-name="Layer 2" xmlns="http://www.w3.org/2000/svg" viewBox="0 0 640.77 628.51">
  <defs>
    <style>
      .cls-1 {
        fill: #014886;
      }

      .cls-2 {
        fill: #d3dce1;
      }
    </style>
  </defs>
  <g id="Layer_1-2" data-name="Layer 1">
    <g>
      <path class="cls-2" d="M181.27,93.94S210.53-7.82,288.7.48c78.17,8.3,93.46,31.44,115.29,75.11,0,0,48.91-35.37,93.46,4.37,44.54,39.74,24.46,93.46,24.46,93.46,0,0,116.16-17.47,118.79,89.96,2.62,107.43-62.89,104.81-62.89,104.81l-460.62,4.24c-10.22.09-20.33-2.2-29.46-6.8-36.33-18.3-119.33-75.28-75.02-199.2,0,0,28.82-108.74,168.57-72.49Z"/>
      <ellipse class="cls-1" cx="137.66" cy="459.65" rx="14.5" ry="34.19"/>
      <ellipse class="cls-1" cx="533.4" cy="449.29" rx="14.5" ry="34.19"/>
      <ellipse class="cls-1" cx="212.25" cy="525.95" rx="14.5" ry="34.19"/>
      <ellipse class="cls-1" cx="444.3" cy="517.66" rx="14.5" ry="34.19"/>
      <ellipse class="cls-1" cx="286.84" cy="490.73" rx="14.5" ry="34.19"/>
      <ellipse class="cls-1" cx="361.43" cy="449.29" rx="14.5" ry="34.19"/>
      <ellipse class="cls-1" cx="361.43" cy="594.32" rx="14.5" ry="34.19"/>
    </g>
  </g>
</svg>