<?xml version="1.0" encoding="UTF-8"?>
<svg id="Layer_2" data-name="Layer 2" xmlns="http://www.w3.org/2000/svg" viewBox="0 0 47 45">
  <defs>
    <style>
      .cls-1 {
        fill: #ffcc59;
      }

      .cls-2 {
        fill: none;
        stroke: #ffcc59;
        stroke-width: 5px;
      }
    </style>
  </defs>
  <g id="Layer_1-2" data-name="Layer 1">
    <rect class="cls-2" x="2.5" y="2.5" width="42" height="40" rx="10" ry="10"/>
    <rect class="cls-1" x="8.5" y="9.29" width="30" height="7" rx="2" ry="2"/>
    <path class="cls-1" d="M36.62,18.61H10.62c-1.1,0-2,.9-2,2v13c0,1.1.9,2,2,2h26c1.1,0,2-.9,2-2v-13c0-1.1-.9-2-2-2ZM11.32,22.69c0-1.1.9-2,2-2h1c1.1,0,2,.9,2,2v2c0,1.1-.9,2-2,2h-1c-1.1,0-2-.9-2-2v-2ZM16.41,31.67c0,1.1-.9,2-2,2h-1c-1.1,0-2-.9-2-2v-2c0-1.1.9-2,2-2h1c1.1,0,2,.9,2,2v2ZM17.69,22.69c0-1.1.9-2,2-2h1c1.1,0,2,.9,2,2v2c0,1.1-.9,2-2,2h-1c-1.1,0-2-.9-2-2v-2ZM22.81,31.67c0,1.1-.9,2-2,2h-1c-1.1,0-2-.9-2-2v-2c0-1.1.9-2,2-2h1c1.1,0,2,.9,2,2v2ZM24.31,22.69c0-1.1.9-2,2-2h1c1.1,0,2,.9,2,2v2c0,1.1-.9,2-2,2h-1c-1.1,0-2-.9-2-2v-2ZM29.46,31.67c0,1.1-.9,2-2,2h-1c-1.1,0-2-.9-2-2v-2c0-1.1.9-2,2-2h1c1.1,0,2,.9,2,2v2ZM30.68,22.69c0-1.1.9-2,2-2h1c1.1,0,2,.9,2,2v2c0,1.1-.9,2-2,2h-1c-1.1,0-2-.9-2-2v-2ZM35.81,31.44c0,1.1-.9,2-2,2h-1c-1.1,0-2-.9-2-2v-2c0-1.1.9-2,2-2h1c1.1,0,2,.9,2,2v2Z"/>
  </g>
</svg>