<?xml version="1.0" encoding="UTF-8"?>
<svg id="Layer_2" data-name="Layer 2" xmlns="http://www.w3.org/2000/svg" viewBox="0 0 582.86 582.86">
  <defs>
    <style>
      .cls-1 {
        fill: #fff;
      }

      .cls-2 {
        fill: #ddd;
      }
    </style>
  </defs>
  <g id="Layer_1-2" data-name="Layer 1">
    <g>
      <path class="cls-1" d="M291.43,0c160.95,0,291.43,130.48,291.43,291.43s-130.48,291.43-291.43,291.43S0,452.38,0,291.43,130.48,0,291.43,0"/>
      <path class="cls-2" d="M144.44,94.63c27.51,0,49.81,22.3,49.81,49.81s-22.3,49.81-49.81,49.81-49.81-22.3-49.81-49.81,22.3-49.81,49.81-49.81"/>
      <path class="cls-2" d="M524.46,261.14c15.74,0,28.49,12.76,28.49,28.49s-12.76,28.49-28.49,28.49-28.49-12.76-28.49-28.49,12.76-28.49,28.49-28.49"/>
      <path class="cls-2" d="M468.98,187.84c10.79,0,19.53,8.74,19.53,19.53s-8.74,19.53-19.53,19.53-19.53-8.74-19.53-19.53,8.74-19.53,19.53-19.53"/>
      <path class="cls-2" d="M259.54,42.83c18.71,0,33.87,15.16,33.87,33.87s-15.16,33.87-33.87,33.87-33.87-15.16-33.87-33.87,15.16-33.87,33.87-33.87"/>
      <path class="cls-2" d="M488.61,207.27c10.84,0,19.62,8.79,19.62,19.62s-8.79,19.62-19.62,19.62-19.62-8.79-19.62-19.62,8.79-19.62,19.62-19.62"/>
      <path class="cls-2" d="M253.08,158.78c14.25,0,25.8,11.55,25.8,25.8s-11.55,25.8-25.8,25.8-25.8-11.55-25.8-25.8,11.55-25.8,25.8-25.8"/>
    </g>
  </g>
</svg>