<?xml version="1.0" encoding="UTF-8"?>
<svg id="Layer_2" data-name="Layer 2" xmlns="http://www.w3.org/2000/svg" viewBox="0 0 582.86 582.86">
  <defs>
    <style>
      .cls-1 {
        stroke: #0a0004;
      }

      .cls-1, .cls-2 {
        fill: none;
        stroke-miterlimit: 10;
        stroke-width: 7px;
      }

      .cls-3 {
        fill: #698457;
      }

      .cls-2 {
        stroke: #698457;
      }

      .cls-4 {
        fill: #fedfcd;
      }

      .cls-5 {
        fill: #cedda6;
      }

      .cls-6 {
        fill: #ffcc59;
      }
    </style>
  </defs>
  <g id="Layer_1-2" data-name="Layer 1">
    <g>
      <circle class="cls-5" cx="291.43" cy="291.43" r="291.43"/>
      <g>
        <path class="cls-2" d="M246.27,120.06s33.53-31.95,39.5,50.51"/>
        <path class="cls-2" d="M351.5,120.72s-32.68-35.42-38.51,55.99"/>
        <path class="cls-2" d="M421.41,118.54s-32.68-39.64-38.51,62.66"/>
        <path class="cls-2" d="M387.35,134.92s-46.63-26.82-54.94,42.4"/>
        <path class="cls-2" d="M180.94,114.81s40.32-44.08,47.5,69.69"/>
        <path class="cls-2" d="M212.01,135.95s33.22-25.42,39.14,40.18"/>
        <path class="cls-6" d="M149.77,192.56s17.33,189.41,31.07,216.3c13.74,26.89,0,49,0,49,0,0,41.23,37.64,215.1,7.17,0,0-2.99-56.76,19.12-94.41,0,0,19.12-88.43,21.51-182.84,0,0-142.8-41.23-286.8,4.78Z"/>
        <path class="cls-3" d="M347.2,119.35c2.8,16.69,18.85,118.14,5.73,180.94-.26,1.24-.02,2.52.7,3.57,4.4,6.4,20.97,27,32.11-7.56,12.33-38.26-16.42-190.75-36.11-181.83-1.83.83-2.76,2.9-2.43,4.88Z"/>
        <path class="cls-3" d="M411.98,110.1s22.01,117.71-5.28,185.23c0,0,27.29,35.25,49.29-4.18s-13.2-206.74-44.01-181.05Z"/>
        <path class="cls-3" d="M381.44,134.33c2.8,16.69,18.85,118.14,5.73,180.94-.26,1.24-.02,2.52.7,3.57,4.4,6.4,20.97,27,32.11-7.56,12.33-38.26-16.42-190.75-36.11-181.83-1.83.83-2.76,2.9-2.43,4.88Z"/>
        <path class="cls-3" d="M250.09,120.54c-2.8,16.69-18.85,118.14-5.73,180.94.26,1.24.02,2.52-.7,3.57-4.4,6.4-20.97,27-32.11-7.56-12.33-38.26,16.42-190.75,36.11-181.83,1.83.83,2.76,2.9,2.43,4.88Z"/>
        <path class="cls-3" d="M185.31,111.3s-22.01,117.71,5.28,185.23c0,0-27.29,35.25-49.29-4.18-22.01-39.44,13.2-206.74,44.01-181.05Z"/>
        <path class="cls-3" d="M215.85,135.53c-2.8,16.69-18.85,118.14-5.73,180.94.26,1.24.02,2.52-.7,3.57-4.4,6.4-20.97,27-32.11-7.56-12.33-38.26,16.42-190.75,36.11-181.83,1.83.83,2.76,2.9,2.43,4.88Z"/>
        <circle cx="276.92" cy="374.46" r="8.03"/>
        <path class="cls-1" d="M312.18,402.89s-11.06-10.14-33.26-.6"/>
        <ellipse class="cls-4" cx="344.43" cy="390.58" rx="16.43" ry="6.88"/>
        <ellipse class="cls-4" cx="241.45" cy="391.72" rx="16.43" ry="6.88"/>
        <circle cx="315.58" cy="374.14" r="8.03"/>
      </g>
    </g>
  </g>
</svg>